<svg width="197" height="97" viewBox="0 0 197 97" fill="none" xmlns="http://www.w3.org/2000/svg">
<path d="M16.891 88.2031C19.4316 88.43 21.9721 88.6568 24.5832 88.5056C26.277 88.43 28.0412 88.2787 29.7349 88.3544C31.0052 88.3544 32.3461 88.43 33.5458 87.9007C34.5337 87.5226 35.5217 87.825 36.5097 87.7494C40.1794 87.447 43.708 86.6152 47.3776 86.4639C49.9182 86.3127 52.5293 85.859 55.0699 85.5565C57.1164 85.3297 59.163 84.9516 61.2095 84.8003C63.3267 84.6491 65.3026 84.0442 67.3492 83.8173C69.184 83.5905 71.0189 83.288 72.8537 83.288C76.594 83.2124 80.2637 82.7587 83.9334 82.0781C89.0145 81.1707 94.0956 81.0951 99.1767 80.6414C101.435 80.4146 103.623 80.2633 105.881 79.8096C107.998 79.3559 110.115 79.2047 112.232 78.9022C117.455 78.146 122.677 78.5997 127.899 78.5241C131.78 78.4485 135.662 78.5997 139.543 78.5241C142.225 78.4485 144.907 78.5998 147.588 78.4485C148.647 78.3729 149.282 78.751 149.847 79.8852C150.976 82.2294 151.611 84.8004 152.599 87.2201C153.375 89.1861 154.01 91.1522 155.21 92.8914C155.704 93.5719 155.916 94.4037 156.339 95.1599C156.904 96.2185 157.68 96.3698 158.456 95.4624C159.162 94.7062 159.515 93.8744 159.726 92.8158C160.362 88.7325 161.632 84.8004 163.608 81.2464C164.031 80.4902 164.666 80.0365 165.725 80.0365C166.995 80.0365 168.195 80.339 169.395 80.4902C171.3 80.6414 173.206 80.4146 175.111 80.4902C175.958 80.5658 176.805 80.4902 177.581 80.0365C178.004 79.8096 178.428 79.734 178.922 79.8096C181.886 79.9609 184.779 79.3559 187.461 78.146C188.943 77.4655 190.566 76.7093 191.695 75.0458C192.471 73.9871 193.53 73.1553 194.094 71.8698C194.659 70.7356 195.012 69.6013 194.941 68.3915C194.73 66.1986 195.082 64.0813 195.224 61.8884C195.365 59.9223 195.153 57.8807 195.294 55.9146C195.435 53.1168 195.153 50.2434 195.647 47.4455C195.788 46.5381 195.718 45.6307 195.788 44.7233C195.859 42.606 195.788 40.5644 196.07 38.4471C196.141 38.069 196 37.6153 195.929 37.2372C195.788 36.6323 195.718 36.0273 195.788 35.4224C196.212 32.1709 195.929 28.9193 196 25.7434C196.07 22.87 196 20.0721 196.353 17.1987C196.706 14.5521 196.423 11.8299 195.859 9.10766C194.8 4.19255 190.848 0.941008 186.473 0.714157C180.757 0.411688 175.04 0.336076 169.324 0.411693C165.019 0.48731 160.644 0.487301 156.339 0.26045C149.423 -0.117636 142.507 0.109225 135.591 0.0336076C129.875 0.0336076 124.229 -0.0420095 118.513 0.0336076C113.785 0.109225 108.986 0.109225 104.258 0.411693C101.929 0.562927 99.6707 0.487301 97.3418 0.638535C94.519 0.865386 91.7667 0.638535 88.9439 0.638535C85.9093 0.714152 82.8748 0.562923 79.8402 0.714157C75.1826 0.941008 70.5249 0.8654 65.8672 1.24349C62.0564 1.62157 58.2456 1.69719 54.3642 1.69719C51.4708 1.69719 48.5068 1.92403 45.6134 1.92403C43.214 1.99965 40.744 1.99964 38.3446 1.77279C36.8626 1.69717 35.4512 1.99965 33.9692 1.92403C31.0758 1.7728 28.1824 1.92404 25.3595 2.45336C23.2424 2.90707 20.9841 2.90707 19.0787 4.34379C17.6673 4.34379 16.6087 5.32681 15.2679 5.78051C12.6568 6.6123 10.6808 8.42711 8.7048 10.3175C7.43452 11.5274 6.23483 12.7373 5.38798 14.3252C4.47056 16.0644 3.55313 17.8792 2.84742 19.7697C1.29486 23.6261 0.942013 27.7851 0.377438 31.8684C0.0245934 34.4394 -0.0459785 37.086 0.0245934 39.7326C0.09515 41.9255 0.448009 44.1184 0.800869 46.3113C1.15373 48.5798 1.436 50.8483 1.36543 53.1168C1.22429 57.2757 1.50656 61.4347 2.28285 65.518C2.70626 67.7865 2.42399 70.2063 3.05912 72.3992C3.76483 74.8945 4.04712 77.4655 5.52911 79.734C6.23481 80.8683 6.7288 82.1538 7.57565 83.2124C9.76335 86.0102 12.6568 87.2957 15.903 87.9763C16.0442 87.2957 15.0562 87.447 15.0562 86.7664C15.6913 86.3127 16.6087 86.842 17.0322 86.1615C17.4556 85.4809 17.9496 85.3297 18.5847 85.7078C19.0081 85.9346 19.1493 85.6321 19.2199 85.1784C17.2439 84.9516 15.3385 84.4979 13.4331 83.8173C13.4331 84.3466 13.3625 84.9516 12.6568 84.6491C12.0922 84.4223 11.8805 83.8929 12.4451 83.288C10.4691 81.7757 8.98709 79.8096 7.78738 77.4655C6.79939 75.4995 6.09369 73.3822 5.67025 71.1893C5.38797 69.6769 5.31739 68.089 5.17625 66.501C5.10568 65.518 5.17625 64.4594 4.89398 63.552C4.54112 62.1908 4.3294 60.8297 4.25883 59.4686C4.1177 56.6708 4.3294 53.7974 4.04712 50.9995C3.8354 49.0335 4.18827 46.9918 3.6237 45.0258C3.412 44.2696 2.98857 43.4378 2.918 42.6816C2.84742 40.2619 2.84741 37.7665 2.70626 35.2712C2.63569 33.6832 2.84741 32.0952 2.98855 30.5073C3.1297 28.39 3.27084 26.1971 4.11769 24.2311C4.39997 23.6261 4.47056 22.87 4.68226 22.1138C5.38798 19.316 6.37596 16.6694 8.35194 14.5521C9.4105 13.4178 10.6808 12.6617 11.7394 11.6786C12.2333 11.2249 12.6568 10.6956 13.2919 10.3175C16.0442 8.65396 19.0787 7.67093 22.1133 6.76352C22.9601 6.53667 23.8775 6.15859 24.7244 6.08297C29.5232 5.55365 34.322 5.17557 39.1914 5.3268C39.8971 5.3268 40.5323 5.55365 41.1674 5.55365C43.1434 5.47803 45.1899 5.25119 47.1659 5.3268C52.0353 5.40242 56.8341 5.17557 61.633 4.94872C65.8672 4.79748 70.0309 4.4194 74.2651 4.26817C83.2276 4.04132 92.1902 4.26817 101.082 3.89008C104.046 3.73885 107.01 3.43638 109.974 3.512C113.573 3.66323 117.172 3.43638 120.771 3.43638C122.747 3.43638 124.723 3.66322 126.629 3.36075C128.04 3.1339 129.452 3.66323 130.792 3.43638C132.557 3.13391 134.392 3.36077 136.156 3.20953C138.908 2.98268 141.66 3.36076 144.413 3.43638C148.576 3.51199 152.74 3.512 156.904 3.58762C160.644 3.66324 164.384 3.81447 168.195 3.89008C169.889 3.89008 171.582 3.81447 173.276 3.89008C175.323 3.9657 177.44 3.81446 179.486 4.19255C181.674 4.57063 183.862 4.04131 186.049 4.11693C189.225 4.26816 192.189 6.99038 192.471 10.3175C192.683 12.4348 192.612 14.5521 192.754 16.6694C193.036 19.9965 192.33 23.3237 192.824 26.5752C192.965 27.407 192.401 28.1632 192.542 29.0706C192.754 30.2048 192.612 31.2635 192.542 32.3977C192.401 34.515 192.401 36.6323 192.401 38.6739C192.401 41.1693 192.401 43.7403 192.33 46.2356C192.26 48.8066 191.836 51.3776 191.836 53.9486C191.907 57.5782 191.766 61.2078 191.766 64.8375C191.766 65.9717 190.637 67.1059 191.836 68.1646C191.977 68.2402 191.695 68.467 191.624 68.5427C191.342 68.9964 191.131 69.4501 190.919 69.9794C189.719 72.626 187.814 74.2896 185.203 75.197C184.215 75.4995 183.227 75.5751 182.239 75.9532C180.121 76.7094 177.863 77.0874 175.675 77.2386C172.5 77.3899 169.254 77.5411 166.148 76.6337C165.16 76.4069 164.314 76.8606 163.467 77.3899C161.561 78.5241 160.714 80.5658 159.797 82.4562C158.809 84.4223 158.033 86.5396 157.609 88.8081C157.539 89.1105 157.398 89.413 157.115 89.4886C156.833 89.4886 156.621 89.1861 156.551 88.8837C155.845 86.842 154.998 84.876 154.293 82.8343C153.587 80.717 152.881 78.5242 151.54 76.7094C150.835 75.7263 149.847 75.0458 148.788 75.2726C147.447 75.4995 146.106 75.197 144.765 75.2726C140.602 75.3482 136.438 75.2726 132.274 75.3482C126.558 75.4238 120.771 75.0458 115.055 75.6507C112.091 75.9532 109.127 76.2556 106.234 76.785C103.34 77.3143 100.447 77.5411 97.5535 77.6167C92.7547 77.8436 87.9559 78.3729 83.1571 79.0535C80.5459 79.4315 77.9348 80.0365 75.3237 79.9609C74.4769 79.9609 73.63 79.9609 72.7832 80.0365C68.5489 80.5658 64.3146 81.0195 60.0804 81.7757C56.0579 82.4562 51.8942 82.6831 47.8716 83.2124C43.6374 83.7417 39.4031 84.1954 35.1689 84.7247C33.4046 84.9516 31.7109 85.0272 29.9466 85.2541C27.9707 85.5565 25.9241 85.6321 23.8775 85.4809C22.6073 85.4053 21.4076 85.3297 20.2079 85.4809C20.2784 86.0102 19.9256 86.3127 19.5727 86.6152C18.867 87.2201 17.8085 87.5226 16.891 88.2031ZM4.68226 68.4671C3.97656 68.089 3.97654 67.4084 3.41198 67.2572C3.05912 67.1816 3.1297 66.6523 3.1297 66.3498C3.1297 66.0473 3.20027 65.7448 3.55313 65.6692C3.90599 65.5936 4.04712 65.8205 4.18826 66.123C4.39997 66.7279 4.75283 67.4084 4.68226 68.4671ZM14.1388 86.9933C13.6448 86.6152 13.2213 86.4639 13.3625 85.9346C13.8565 85.9346 13.9976 86.3127 14.1388 86.9933ZM3.76483 64.2325C3.97654 64.2325 4.04712 64.3837 4.04712 64.535C3.97654 64.6862 3.90597 64.8374 3.76483 64.9131C3.55313 64.9887 3.55313 64.7618 3.55313 64.6106C3.48256 64.4594 3.55313 64.3082 3.76483 64.2325ZM4.25883 69.5257C4.25883 69.2989 4.3294 69.2232 4.47055 69.072C4.61169 68.9964 4.68225 69.072 4.75282 69.2232C4.82339 69.4501 4.75282 69.7526 4.47055 69.7526C4.39997 69.7526 4.3294 69.6013 4.25883 69.5257Z" fill="white" stroke="#77C7E3" stroke-width="0.82"/>
</svg>